<svg xmlns="http://www.w3.org/2000/svg" viewBox="0 0 800 800" width="100%" height="100%">
	<defs>
		<linearGradient id="grd11" gradientUnits="userSpaceOnUse"  x1="187.559" y1="107.92" x2="660.881" y2="736.04">
			<stop offset="0" stop-color="#00b7aa"  />
			<stop offset="0.15" stop-color="#f4f4f2"  />
			<stop offset="0.5" stop-color="#f4f4f2"  />
			<stop offset="0.5" stop-color="#bbbfca"  />
			<stop offset="0.98" stop-color="#f4f4f2"  />
		</linearGradient>
		<linearGradient id="grd12" gradientUnits="userSpaceOnUse"  x1="157.654" y1="602.705" x2="681.454" y2="235.935">
			<stop offset="0" stop-color="#00b7aa"  />
			<stop offset="0.23" stop-color="#f4f4f2"  />
			<stop offset="0.5" stop-color="#f4f4f2"  />
			<stop offset="0.5" stop-color="#bbbfca"  />
			<stop offset="1" stop-color="#f4f4f2"  />
		</linearGradient>
		<linearGradient id="grd13" gradientUnits="userSpaceOnUse"  x1="626.22" y1="419.331" x2="205.56" y2="411.989">
			<stop offset="0" stop-color="#00b7aa"  />
			<stop offset="0.37" stop-color="#f4f4f2" stop-opacity="0" />
			<stop offset="0.5" stop-color="#f4f4f2"  />
			<stop offset="0.5" stop-color="#bbbfca" stop-opacity="0" />
			<stop offset="1" stop-color="#f4f4f2"  />
		</linearGradient>
		<linearGradient id="grd14" gradientUnits="userSpaceOnUse"  x1="238.12" y1="558.087" x2="587.44" y2="264.973">
			<stop offset="0" stop-color="#00b7aa"  />
			<stop offset="0.37" stop-color="#f4f4f2" stop-opacity="0" />
			<stop offset="0.5" stop-color="#f4f4f2"  />
			<stop offset="0.5" stop-color="#bbbfca" stop-opacity="0" />
			<stop offset="1" stop-color="#f4f4f2"  />
		</linearGradient>
		<linearGradient id="grd15" gradientUnits="userSpaceOnUse"  x1="304.24" y1="332.494" x2="510.88" y2="482.626">
			<stop offset="0" stop-color="#00b7aa"  />
			<stop offset="0.21" stop-color="#f4f4f2"  />
			<stop offset="0.5" stop-color="#f4f4f2"  />
			<stop offset="0.5" stop-color="#bbbfca"  />
			<stop offset="0.83" stop-color="#f4f4f2"  />
		</linearGradient>
		<linearGradient id="grd16" gradientUnits="userSpaceOnUse"  x1="549.513" y1="261.631" x2="271.487" y2="559.777">
			<stop offset="0" stop-color="#00b7aa"  />
			<stop offset="0.19" stop-color="#f4f4f2"  />
			<stop offset="0.5" stop-color="#f4f4f2"  />
			<stop offset="0.5" stop-color="#bbbfca"  />
			<stop offset="0.982" stop-color="#f4f4f2"  />
		</linearGradient>
	</defs>
	<style>
		tspan { white-space:pre }
		.shp10 { fill: none;stroke: url(#grd11);stroke-linecap:round } 
		.shp11 { fill: none;stroke: url(#grd12);stroke-linecap:round } 
		.shp12 { fill: none;stroke: url(#grd13);stroke-linecap:round;stroke-width: 2 } 
		.shp13 { fill: none;stroke: url(#grd14);stroke-linecap:round } 
		.shp14 { fill: none;stroke: url(#grd15);stroke-linecap:round } 
		.shp15 { fill: none;stroke: url(#grd16);stroke-linecap:round } 
	</style>
	<g id="circles3">
		<path id="s10" class="shp10" d="M401 782C186.99 782 14 610.8 14 399C14 187.2 186.99 16 401 16C615.01 16 788 187.2 788 399C788 610.8 615.01 782 401 782Z" />
		<path id="s9" class="shp11" d="M400.39 722C223.77 722 81 578.07 81 400C81 221.93 223.77 78 400.39 78C577.01 78 719.78 221.93 719.78 400C719.78 578.07 577.01 722 400.39 722Z" />
		<path id="s8" class="shp12" d="M400.5 661C258.66 661 144 544.33 144 400C144 255.67 258.66 139 400.5 139C542.34 139 657 255.67 657 400C657 544.33 542.34 661 400.5 661Z" />
		<path id="s7" class="shp13" d="M400 600C282.21 600 187 510.38 187 399.5C187 288.62 282.21 199 400 199C517.79 199 613 288.62 613 399.5C613 510.38 517.79 600 400 600Z" />
		<path id="s6" class="shp14" d="M400 526C330.32 526 274 469.68 274 400C274 330.32 330.32 274 400 274C469.68 274 526 330.32 526 400C526 469.68 469.68 526 400 526Z" />
		<path id="s0" class="shp15" d="M400 581.59C303.23 581.59 225 500.33 225 399.8C225 299.26 303.23 218 400 218C496.77 218 575 299.26 575 399.8C575 500.33 496.77 581.59 400 581.59Z" />
	</g>
</svg>