<svg xmlns="http://www.w3.org/2000/svg" viewBox="0 0 800 800" width="100%" height="100%">
	<defs>
		<linearGradient id="grd1" gradientUnits="userSpaceOnUse"  x1="186.847" y1="106.88" x2="665.113" y2="741.56">
			<stop offset="0" stop-color="#00b7aa"  />
			<stop offset="0.373" stop-color="#bbbfca"  />
		</linearGradient>
		<linearGradient id="grd2" gradientUnits="userSpaceOnUse"  x1="671.98" y1="174.07" x2="166.04" y2="662.65">
			<stop offset="0" stop-color="#00b7aa"  />
			<stop offset="0.373" stop-color="#bbbfca"  />
		</linearGradient>
		<linearGradient id="grd3" gradientUnits="userSpaceOnUse"  x1="279.12" y1="583.736" x2="607.94" y2="307.824">
			<stop offset="0" stop-color="#00b7aa"  />
			<stop offset="0.373" stop-color="#bbbfca"  />
		</linearGradient>
		<linearGradient id="grd4" gradientUnits="userSpaceOnUse"  x1="306.84" y1="354.851" x2="497.08" y2="493.069">
			<stop offset="0" stop-color="#00b7aa"  />
			<stop offset="0.373" stop-color="#bbbfca"  />
		</linearGradient>
    <mask id="stripe3">
      <rect x="0"
            y="0"
            width="100%"
            height="100%"
            fill="white" />

			<path id="Shape 22" class="shp0" d="M115 348L167.49 354.82L174.6 401.99L115 408L115 348Z" />
			<path id="Shape 22" class="shp0" d="M317.35 618.82L352 626L352 683L292.49 667.74L317.35 618.82Z" />
			<path id="Shape 22" class="shp0" d="M405.49 535.63L443 530L455.87 574.3L400.1 581.2L405.49 535.63Z" />
			<path id="Shape 22" class="shp0" d="M476.34 218.4L538.51 243.65L479.76 299.29L443 277L476.34 218.4Z" />
			<path id="Shape 22" class="shp0" d="M513.68 184.55L540.99 150.47L589 192.67L551.17 219.6L513.68 184.55Z" />
			<path id="Shape 22" class="shp0" d="M631.64 461.36L690.28 480.08L641.1 572.72L584.81 534.23L631.64 461.36Z" />
			<path id="Shape 22" class="shp0" d="M211.21 183.25L283.99 141.55L306.59 186.66L241.17 225.48L211.21 183.25Z" />
			<path id="Shape 22" class="shp0" d="M467.39 122.55L447.03 192.87L367.5 173.11L363.04 115.84L467.39 122.55Z" />
			<path id="Shape 22" class="shp0" d="M202.09 533.31L220.48 564.5L189.08 586.47L171.17 554.59L202.09 533.31Z" />
			<path id="Shape 22" class="shp0" d="M614 214L637.56 239.16L597.98 266.92L577.96 239.13L614 214Z" />
			<path id="Shape 22" class="shp0" d="M235.62 326.95L287.07 346.25L278.19 383.96L219.95 381.68L235.62 326.95Z" />
			<path id="Shape 22" class="shp0" d="M427.91 460.73L446 448L470.92 467.55L446.34 486.84L427.91 460.73Z" />
			<path id="Shape 22" class="shp0" d="M451.11 302.28L474.75 332.32L436.86 363.19L417.42 344.14L451.11 302.28Z" />
			<path id="Shape 22" class="shp0" d="M426.13 633.21L485.89 622.31L509.63 677.87L426.84 695.94L426.13 633.21Z" />
			<path id="Shape 22" class="shp0" d="M491.51 495.92L521.23 464.02L563.03 482.42L518.76 532.13L491.51 495.92Z" />
			<path id="Shape 22" class="shp0" d="M529.33 376.35L577 367L577 413L525.6 402.93L529.33 376.35Z" />
			<path id="Shape 22" class="shp0" d="M298 262.5L313.19 241.9L350.36 287.02L329.58 294.33L298 262.5Z" />


    </mask>
	</defs>
	<style>
		tspan { white-space:pre }
		.shp300 { fill: none;stroke: url(#grd1);stroke-linecap:round;stroke-width: 2 } 
		.shp31 { fill: none;stroke: url(#grd2);stroke-linecap:round } 
		.shp32 { fill: none;stroke: url(#grd3);stroke-linecap:round;stroke-width: 2 } 
	</style>
	<g >
		<g mask="url(#stripe3)" >
    	<path id="Shape 22" class="shp300" d="M401 481C357.87 481 323 445.24 323 401C323 356.76 357.87 321 401 321C444.13 321 479 356.76 479 401C479 445.24 444.13 481 401 481Z" />
			<path id="Shape 22" class="shp31" d="M400.5 557C313.96 557 244 487.27 244 401C244 314.73 313.96 245 400.5 245C487.04 245 557 314.73 557 401C557 487.27 487.04 557 400.5 557Z" />
			<path id="Shape 22" class="shp32" d="M400 657C255.67 657 139 542.34 139 400.5C139 258.66 255.67 144 400 144C544.33 144 661 258.66 661 400.5C661 542.34 544.33 657 400 657Z" />
    </g>
	</g>
</svg>