<svg xmlns="http://www.w3.org/2000/svg" viewBox="0 0 800 800" width="100%" height="100%">
	<defs>
		<linearGradient id="grd21" gradientUnits="userSpaceOnUse"  x1="427.273" y1="113.74" x2="416.767" y2="715.62">
			<stop offset="0" stop-color="#bbbfca"  />
			<stop offset="0.26" stop-color="#f4f4f2"  />
			<stop offset="0.5" stop-color="#f4f4f2"  />
			<stop offset="0.5" stop-color="#00b7aa"  />
			<stop offset="1" stop-color="#f4f4f2"  />
		</linearGradient>
    <linearGradient id="grd22" gradientUnits="userSpaceOnUse"  x1="176.238" y1="172.835" x2="709.965" y2="725.525">
			<stop offset="0" stop-color="#00b7aa"  />
			<stop offset="0.23" stop-color="#f4f4f2"  />
			<stop offset="0.5" stop-color="#f4f4f2"  />
			<stop offset="0.5" stop-color="#bbbfca"  />
			<stop offset="1" stop-color="#f4f4f2"  />
		</linearGradient>
    <linearGradient id="grd23" gradientUnits="userSpaceOnUse"  x1="267.497" y1="660.05" x2="554.983" y2="162.11">
			<stop offset="0" stop-color="#00b7aa"  />
			<stop offset="0.223" stop-color="#f4f4f2"  />
			<stop offset="0.735" stop-color="#f4f4f2"  />
			<stop offset="0.99" stop-color="#bbbfca"  />
		</linearGradient>
		<linearGradient id="grd24" gradientUnits="userSpaceOnUse"  x1="248.493" y1="230.64" x2="578.527" y2="597.18">
			<stop offset="0" stop-color="#00b7aa"  />
			<stop offset="0.095" stop-color="#f4f4f2" stop-opacity="0" />
			<stop offset="0.5" stop-color="#f4f4f2" stop-opacity="0" />
			<stop offset="0.5" stop-color="#bbbfca"  />
			<stop offset="0.639" stop-color="#f4f4f2" stop-opacity="0" />
			<stop offset="1" stop-color="#f4f4f2" stop-opacity="0" />
		</linearGradient>
		<linearGradient id="grd25" gradientUnits="userSpaceOnUse"  x1="550.809" y1="410.573" x2="267.278" y2="395.714">
			<stop offset="0" stop-color="#bbbfca"  />
			<stop offset="0.04" stop-color="#bbbfca" stop-opacity="0" />
			<stop offset="0.611" stop-color="#f4f4f2" stop-opacity="0" />
			<stop offset="0.82" stop-color="#f4f4f2" stop-opacity="0" />
			<stop offset="1" stop-color="#bbbfca"  />
		</linearGradient>
		<linearGradient id="grd26" gradientUnits="userSpaceOnUse"  x1="477.589" y1="435.648" x2="333.139" y2="374.332">
			<stop offset="0" stop-color="#00b7aa"  />
			<stop offset="0.19" stop-color="#f4f4f2"  />
			<stop offset="0.5" stop-color="#f4f4f2"  />
			<stop offset="0.5" stop-color="#bbbfca"  />
			<stop offset="0.982" stop-color="#f4f4f2"  />
		</linearGradient>
	</defs>
	<style>
		tspan { white-space:pre }
		.shp20 { fill: none;stroke: url(#grd21);stroke-linecap:round } 
		.shp21 { fill: none;stroke: url(#grd22);stroke-linecap:round } 
		.shp22 { fill: none;stroke: url(#grd23);stroke-width: 4 } 
		.shp23 { fill: none;stroke: url(#grd24);stroke-linecap:round } 
		.shp24 { fill: none;stroke: url(#grd25);stroke-linecap:round } 
		.shp25 { fill: none;stroke: url(#grd26);stroke-linecap:round } 
	</style>
	<g id="circles2">
		<path id="s51" class="shp20" d="M400 767C197.05 767 33 602.95 33 400C33 197.05 197.05 33 400 33C602.95 33 767 197.05 767 400C767 602.95 602.95 767 400 767Z" />
		<path id="s5" class="shp21" d="M399.98 710C229.67 710 92 571.21 92 399.5C92 227.79 229.67 89 399.98 89C570.3 89 707.97 227.79 707.97 399.5C707.97 571.21 570.3 710 399.98 710Z" />
    <path id="s4" class="shp22" d="M400 689C244.61 689 119 559.59 119 399.5C119 239.41 244.61 110 400 110C555.39 110 681 239.41 681 399.5C681 559.59 555.39 689 400 689Z" />
		<path id="s3" class="shp23" d="M399.5 624C270.37 624 166 524.1 166 400.5C166 276.9 270.37 177 399.5 177C528.63 177 633 276.9 633 400.5C633 524.1 528.63 624 399.5 624Z" />
		<path id="s2" class="shp24" d="M328.15 539.8C250.55 500.15 219.75 405.6 259.26 328.29C298.77 250.98 393.43 220.54 471.03 260.2C548.64 299.85 579.43 394.4 539.92 471.71C500.42 549.02 405.76 579.46 328.15 539.8Z" />
		<path id="s1" class="shp25" d="M400.08 491C351.37 491 312 450.1 312 399.5C312 348.9 351.37 308 400.08 308C448.79 308 488.16 348.9 488.16 399.5C488.16 450.1 448.79 491 400.08 491Z" />
	</g>
</svg>