<svg xmlns="http://www.w3.org/2000/svg" viewBox="0 0 138 16" width="6.3em" >
	<style>
		tspan { white-space:pre }
		.shpW0 { fill: #495464 } 
	</style>
	<path id="WideLine Studi " fill-rule="evenodd" class="shpW0" d="M5.71 11.54L9.43 0.98L9.95 0.98L13.21 11.62C13.46 12.46 13.63 13.07 13.72 13.44C13.81 13 13.98 12.4 14.22 11.64L17.53 0.7L18.43 0.7L13.95 15.12L13.45 15.12L10.12 4.52C10.07 4.35 10.01 4.17 9.95 4C9.91 3.83 9.86 3.67 9.83 3.54C9.79 3.41 9.76 3.29 9.72 3.2L9.65 2.96C9.64 2.89 9.63 2.85 9.63 2.84C9.49 3.32 9.3 3.87 9.07 4.5L5.31 15.12L4.81 15.12L0.29 0.7L1.24 0.7L4.54 11.46C4.69 11.94 4.82 12.37 4.91 12.76C5.02 13.15 5.08 13.36 5.09 13.4C5.15 13.09 5.36 12.47 5.71 11.54ZM21.61 15L20.78 15L20.78 2.02L21.61 2.02L21.61 15ZM29.21 1.9C31.01 1.9 32.51 2.52 33.71 3.76C34.92 4.99 35.53 6.66 35.53 8.78C35.53 10.9 34.97 12.49 33.86 13.56C32.75 14.63 31.32 15.16 29.57 15.16C28.36 15.16 27.11 15.09 25.83 14.96L25.83 2.02C26.79 1.94 27.92 1.9 29.21 1.9ZM29.57 14.32C31.11 14.32 32.34 13.86 33.26 12.94C34.2 12.02 34.67 10.63 34.67 8.78C34.67 6.93 34.14 5.45 33.08 4.36C32.04 3.27 30.75 2.72 29.21 2.72C28.12 2.72 27.28 2.75 26.69 2.8L26.69 14.18C27.41 14.27 28.37 14.32 29.57 14.32ZM44.66 15L39.03 15L39.03 2.02L44.48 2.02L44.48 2.82L39.86 2.82L39.86 7.54L44.03 7.54L44.03 8.32L39.86 8.32L39.86 14.16L44.66 14.16L44.66 15ZM54.88 15L48.09 15L48.09 0.7L48.96 0.7L48.96 14.12L54.88 14.12L54.88 15ZM58.16 15L57.33 15L57.33 2.02L58.16 2.02L58.16 15ZM63.21 15L62.38 15L62.38 1.94L62.78 1.94L70.45 11.74C70.72 12.09 70.97 12.43 71.2 12.78C71.44 13.11 71.57 13.29 71.58 13.3C71.56 12.98 71.54 12.35 71.54 11.42L71.54 2.02L72.37 2.02L72.37 15.08L71.98 15.08L64.16 5.12L63.17 3.78C63.2 4.05 63.21 4.67 63.21 5.66L63.21 15ZM82.23 15L76.59 15L76.59 2.02L82.05 2.02L82.05 2.82L77.42 2.82L77.42 7.54L81.6 7.54L81.6 8.32L77.42 8.32L77.42 14.16L82.23 14.16L82.23 15ZM97.9 1.18L97.6 1.96C96.72 1.55 95.85 1.34 94.99 1.34C93.23 1.34 92.36 2.06 92.36 3.5C92.36 4.13 92.56 4.71 92.95 5.26C93.35 5.79 93.83 6.27 94.39 6.7C94.96 7.11 95.52 7.54 96.08 7.98C96.65 8.42 97.13 8.95 97.52 9.56C97.92 10.17 98.12 10.84 98.12 11.56C98.12 12.77 97.75 13.69 97.02 14.32C96.29 14.93 95.27 15.24 93.98 15.24C92.69 15.24 91.6 14.87 90.68 14.14L91.12 13.42C91.98 14.05 92.93 14.36 93.96 14.36C94.99 14.36 95.78 14.13 96.34 13.68C96.89 13.21 97.16 12.55 97.16 11.68C97.16 11.08 96.97 10.51 96.57 9.98C96.17 9.43 95.69 8.95 95.13 8.52C94.57 8.08 94 7.63 93.44 7.18C92.87 6.73 92.39 6.19 92 5.56C91.6 4.93 91.4 4.26 91.4 3.54C91.4 2.59 91.72 1.85 92.34 1.3C92.98 0.74 93.83 0.46 94.9 0.46C95.98 0.46 96.98 0.7 97.9 1.18ZM103.22 15L103.22 2.84L99.26 2.84L99.26 2.02L107.99 2.02L107.99 2.84L104.03 2.84L104.03 15L103.22 15ZM118.65 13.66C117.86 14.69 116.66 15.2 115.04 15.2C113.42 15.2 112.21 14.69 111.42 13.66C110.63 12.63 110.23 11.21 110.23 9.4L110.23 2.02L111.06 2.02L111.06 9.4C111.06 12.72 112.38 14.38 115.04 14.38C117.69 14.38 119.01 12.72 119.01 9.4L119.01 2.02L119.84 2.02L119.84 9.4C119.84 11.21 119.45 12.63 118.65 13.66ZM127.34 1.9C129.14 1.9 130.64 2.52 131.84 3.76C133.05 4.99 133.66 6.66 133.66 8.78C133.66 10.9 133.1 12.49 131.98 13.56C130.88 14.63 129.45 15.16 127.7 15.16C126.49 15.16 125.24 15.09 123.95 14.96L123.95 2.02C124.91 1.94 126.04 1.9 127.34 1.9ZM127.7 14.32C129.23 14.32 130.46 13.86 131.39 12.94C132.32 12.02 132.79 10.63 132.79 8.78C132.79 6.93 132.26 5.45 131.21 4.36C130.16 3.27 128.87 2.72 127.34 2.72C126.25 2.72 125.41 2.75 124.82 2.8L124.82 14.18C125.54 14.27 126.5 14.32 127.7 14.32ZM137.98 15L137.16 15L137.16 2.02L137.98 2.02L137.98 15Z" />
</svg>